<?xml version="1.0" encoding="iso-8859-1"?><!-- Generator: Adobe Illustrator 22.1.0, SVG Export Plug-In . SVG Version: 6.00 Build 0)  --><svg xmlns="http://www.w3.org/2000/svg" xmlns:xlink="http://www.w3.org/1999/xlink" viewBox="0 0 24 24" width="24px" height="24px"><g id="Rounded"><path d="M12,2C6.477,2,2,6.477,2,12c0,5.523,4.477,10,10,10s10-4.477,10-10C22,6.477,17.523,2,12,2z M17.707,9.707l-7,7C10.512,16.902,10.256,17,10,17s-0.512-0.098-0.707-0.293l-3-3c-0.391-0.391-0.391-1.023,0-1.414s1.023-0.391,1.414,0L10,14.586l6.293-6.293c0.391-0.391,1.023-0.391,1.414,0S18.098,9.316,17.707,9.707z"/></g></svg>